<mxfile host="app.diagrams.net" modified="2023-12-30T11:15:55.859Z" agent="Mozilla/5.0 (Windows NT 10.0; Win64; x64) AppleWebKit/537.36 (KHTML, like Gecko) Chrome/120.0.0.0 Safari/537.36" etag="Ipmg-TZQJE55km4lYrbt" version="22.1.16" type="github">
  <diagram name="Page-1" id="1kUWdhE05kZuWmWM3ISa">
    <mxGraphModel dx="955" dy="506" grid="1" gridSize="10" guides="1" tooltips="1" connect="1" arrows="1" fold="1" page="1" pageScale="1" pageWidth="850" pageHeight="1100" math="0" shadow="0">
      <root>
        <mxCell id="0" />
        <mxCell id="1" parent="0" />
        <mxCell id="Y9VoXpEAuxPz8oAYNgGF-4" value="Loan Application" style="shape=umlLifeline;perimeter=lifelinePerimeter;whiteSpace=wrap;html=1;container=1;dropTarget=0;collapsible=0;recursiveResize=0;outlineConnect=0;portConstraint=eastwest;newEdgeStyle={&quot;curved&quot;:0,&quot;rounded&quot;:0};" vertex="1" parent="1">
          <mxGeometry x="240" y="30" width="100" height="250" as="geometry" />
        </mxCell>
        <mxCell id="Y9VoXpEAuxPz8oAYNgGF-5" value="" style="shape=umlLifeline;perimeter=lifelinePerimeter;whiteSpace=wrap;html=1;container=1;dropTarget=0;collapsible=0;recursiveResize=0;outlineConnect=0;portConstraint=eastwest;newEdgeStyle={&quot;curved&quot;:0,&quot;rounded&quot;:0};participant=umlActor;size=30;" vertex="1" parent="1">
          <mxGeometry x="140" y="30" width="20" height="250" as="geometry" />
        </mxCell>
        <mxCell id="Y9VoXpEAuxPz8oAYNgGF-6" value="Loan Applicant&lt;br&gt;" style="text;html=1;align=center;verticalAlign=middle;resizable=0;points=[];autosize=1;strokeColor=none;fillColor=none;" vertex="1" parent="1">
          <mxGeometry x="110" y="58" width="100" height="30" as="geometry" />
        </mxCell>
        <mxCell id="Y9VoXpEAuxPz8oAYNgGF-7" value="Notification System" style="shape=umlLifeline;perimeter=lifelinePerimeter;whiteSpace=wrap;html=1;container=1;dropTarget=0;collapsible=0;recursiveResize=0;outlineConnect=0;portConstraint=eastwest;newEdgeStyle={&quot;curved&quot;:0,&quot;rounded&quot;:0};" vertex="1" parent="1">
          <mxGeometry x="400" y="30" width="100" height="250" as="geometry" />
        </mxCell>
        <mxCell id="Y9VoXpEAuxPz8oAYNgGF-8" value="Create new loan application" style="html=1;verticalAlign=bottom;endArrow=block;curved=0;rounded=0;" edge="1" parent="1">
          <mxGeometry width="80" relative="1" as="geometry">
            <mxPoint x="149.5" y="130" as="sourcePoint" />
            <mxPoint x="289.5" y="130" as="targetPoint" />
          </mxGeometry>
        </mxCell>
        <mxCell id="Y9VoXpEAuxPz8oAYNgGF-9" value="Submit loan appllication" style="html=1;verticalAlign=bottom;endArrow=block;curved=0;rounded=0;" edge="1" parent="1" source="Y9VoXpEAuxPz8oAYNgGF-5" target="Y9VoXpEAuxPz8oAYNgGF-4">
          <mxGeometry width="80" relative="1" as="geometry">
            <mxPoint x="180" y="190" as="sourcePoint" />
            <mxPoint x="260" y="190" as="targetPoint" />
            <Array as="points">
              <mxPoint x="230" y="190" />
            </Array>
          </mxGeometry>
        </mxCell>
        <mxCell id="Y9VoXpEAuxPz8oAYNgGF-10" value="Send acknowledgment" style="html=1;verticalAlign=bottom;endArrow=block;curved=0;rounded=0;" edge="1" parent="1">
          <mxGeometry width="80" relative="1" as="geometry">
            <mxPoint x="289.5" y="230" as="sourcePoint" />
            <mxPoint x="449.5" y="230" as="targetPoint" />
          </mxGeometry>
        </mxCell>
      </root>
    </mxGraphModel>
  </diagram>
</mxfile>
